<svg width="74" height="74" viewBox="0 0 74 74" fill="none" xmlns="http://www.w3.org/2000/svg">
<path d="M25.0058 59.9707C21.5967 58.715 18.5628 56.613 16.1895 53.8622C13.8163 51.1113 12.1816 47.8021 11.4392 44.2457L6.32085 20.1649C5.58085 16.8349 7.70835 13.5666 11.0383 12.8574L41.1625 6.47489L41.255 6.44405C44.5542 5.79655 47.7917 7.92405 48.47 11.1924L49.5492 16.3416L62.9617 19.2091H63.0542C66.2917 19.9491 68.3884 23.2174 67.71 26.4857L62.5917 50.5974C62.0009 53.3672 60.8703 55.9934 59.2644 58.3262C57.6584 60.659 55.6087 62.6525 53.2322 64.1929C50.8557 65.7333 48.199 66.7905 45.4138 67.304C42.6287 67.8175 39.7696 67.7773 37 67.1857C32.3015 66.2051 28.0738 63.6619 25.0058 59.9707ZM61.6667 25.2216L31.5425 18.8082L26.4242 42.9199V43.0124C24.6667 51.2757 30.0009 59.4157 38.295 61.1732C46.5892 62.9307 54.7909 57.6274 56.5484 49.3332L61.6667 25.2216ZM49.3334 50.8749C48.3593 52.5239 46.8915 53.825 45.1374 54.5941C43.3834 55.3632 41.432 55.5614 39.5592 55.1607C37.6922 54.7612 35.9965 53.7888 34.7086 52.3794C33.4207 50.9699 32.6049 49.1936 32.375 47.2982L49.3334 50.8749ZM26.1159 15.9407L12.3333 18.9007L17.4517 42.9815L17.4825 43.0741C17.945 45.2632 18.87 47.2365 20.1342 48.9324C19.8258 46.5582 19.8875 44.0916 20.4117 41.6249L21.7375 35.4582C20.35 35.2116 19.1475 34.4407 18.5 33.3307C18.685 31.4499 20.2267 29.7849 22.3542 29.2916H23.125L25.53 17.5441C25.6533 16.9582 25.8384 16.4341 26.1159 15.9407ZM46.3425 37.7091C47.3292 36.0749 49.4258 35.2116 51.5533 35.6741C53.6809 36.1057 55.2225 37.7399 55.5 39.6516C54.4825 41.2549 52.4167 42.1182 50.2584 41.6249C48.1308 41.2241 46.5892 39.5899 46.3425 37.7091ZM31.2958 34.5024C32.2825 32.8682 34.3484 32.0049 36.4759 32.4674C38.5417 32.8991 40.1758 34.5641 40.4225 36.4449C39.405 38.0482 37.3392 38.9424 35.2117 38.5416C33.0842 38.0174 31.5425 36.3832 31.2958 34.5024ZM36.9075 13.6591L42.9509 14.9541L42.4575 12.4874L36.9075 13.6591Z" fill="black"/>
</svg>
