<svg width="86" height="86" viewBox="0 0 86 86" fill="none" xmlns="http://www.w3.org/2000/svg">
<path d="M55.6943 75.4788L50.3193 28.8954H58.3102L54.261 12.6271L60.496 10.9788L64.9752 28.8954H78.986L73.611 75.4788H55.6943ZM18.0693 39.6454H35.986C38.8371 39.6454 41.5714 40.778 43.5874 42.794C45.6034 44.81 46.736 47.5443 46.736 50.3954H7.31934C7.31934 47.5443 8.45192 44.81 10.4679 42.794C12.484 40.778 15.2183 39.6454 18.0693 39.6454ZM46.736 64.7288C46.736 67.5798 45.6034 70.3141 43.5874 72.3302C41.5714 74.3462 38.8371 75.4788 35.986 75.4788H18.0693C15.2183 75.4788 12.484 74.3462 10.4679 72.3302C8.45192 70.3141 7.31934 67.5798 7.31934 64.7288H46.736ZM10.9027 53.9788H28.8193L34.1943 59.3538L39.5693 53.9788H43.1527C44.103 53.9788 45.0145 54.3563 45.6865 55.0283C46.3585 55.7003 46.736 56.6117 46.736 57.5621C46.736 58.5125 46.3585 59.4239 45.6865 60.0959C45.0145 60.7679 44.103 61.1454 43.1527 61.1454H10.9027C9.95231 61.1454 9.04088 60.7679 8.36887 60.0959C7.69686 59.4239 7.31934 58.5125 7.31934 57.5621C7.31934 56.6117 7.69686 55.7003 8.36887 55.0283C9.04088 54.3563 9.95231 53.9788 10.9027 53.9788Z" fill="black"/>
</svg>
