<svg width="73" height="73" viewBox="0 0 73 73" fill="none" xmlns="http://www.w3.org/2000/svg">
<path d="M49.7618 42.5834C50.0052 40.5759 50.1877 38.5684 50.1877 36.5C50.1877 34.4317 50.0052 32.4242 49.7618 30.4167H60.0427C60.5293 32.3634 60.8335 34.4013 60.8335 36.5C60.8335 38.5988 60.5293 40.6367 60.0427 42.5834H49.7618ZM44.3781 59.495C46.2031 56.1188 47.6023 52.4688 48.5756 48.6667H57.5485C54.6016 53.7411 49.9264 57.5849 44.3781 59.495ZM43.6177 42.5834H29.3827C29.0785 40.5759 28.896 38.5684 28.896 36.5C28.896 34.4317 29.0785 32.3938 29.3827 30.4167H43.6177C43.8914 32.3938 44.1043 34.4317 44.1043 36.5C44.1043 38.5684 43.8914 40.5759 43.6177 42.5834ZM36.5002 60.7117C33.9756 57.0617 31.9377 53.0163 30.6906 48.6667H42.3097C41.0627 53.0163 39.0247 57.0617 36.5002 60.7117ZM24.3335 24.3334H15.4518C18.3684 19.2453 23.0402 15.3954 28.5918 13.505C26.7668 16.8813 25.3981 20.5313 24.3335 24.3334ZM15.4518 48.6667H24.3335C25.3981 52.4688 26.7668 56.1188 28.5918 59.495C23.0518 57.5839 18.3866 53.7394 15.4518 48.6667ZM12.9577 42.5834C12.471 40.6367 12.1668 38.5988 12.1668 36.5C12.1668 34.4013 12.471 32.3634 12.9577 30.4167H23.2385C22.9952 32.4242 22.8127 34.4317 22.8127 36.5C22.8127 38.5684 22.9952 40.5759 23.2385 42.5834H12.9577ZM36.5002 12.258C39.0247 15.908 41.0627 19.9838 42.3097 24.3334H30.6906C31.9377 19.9838 33.9756 15.908 36.5002 12.258ZM57.5485 24.3334H48.5756C47.6236 20.5661 46.214 16.9296 44.3781 13.505C49.9748 15.4213 54.6285 19.2842 57.5485 24.3334ZM36.5002 6.08337C19.6797 6.08337 6.0835 19.7709 6.0835 36.5C6.0835 44.567 9.2881 52.3036 14.9923 58.0079C17.8168 60.8323 21.1699 63.0728 24.8602 64.6014C28.5505 66.13 32.5058 66.9167 36.5002 66.9167C44.5672 66.9167 52.3038 63.7121 58.008 58.0079C63.7122 52.3036 66.9168 44.567 66.9168 36.5C66.9168 32.5057 66.1301 28.5504 64.6015 24.8601C63.0729 21.1698 60.8324 17.8167 58.008 14.9922C55.1836 12.1678 51.8304 9.92729 48.1401 8.39871C44.4498 6.87012 40.4945 6.08337 36.5002 6.08337Z" fill="black"/>
</svg>
